<?xml version="1.0" encoding="UTF-8"?>
<svg xmlns="http://www.w3.org/2000/svg" xmlns:xlink="http://www.w3.org/1999/xlink" width="40px" height="40px" viewBox="0 0 50 50" version="1.1">
<g id="surface1">
<path style=" stroke:none;fill-rule:nonzero;fill:rgb(14.901961%,22.745098%,47.843137%);fill-opacity:1;" d="M 50 25 C 50 38.808594 38.808594 50 25 50 C 11.191406 50 0 38.808594 0 25 C 0 11.191406 11.191406 0 25 0 C 38.808594 0 50 11.191406 50 25 Z M 50 25 "/>
<path style=" stroke:none;fill-rule:nonzero;fill:rgb(7.058824%,6.666667%,28.627451%);fill-opacity:1;" d="M 38.5625 14.445312 L 12.203125 23.734375 L 23.769531 31.03125 L 16.667969 38.890625 L 27.640625 49.863281 C 39.921875 48.574219 49.554688 38.390625 49.984375 25.867188 Z M 38.5625 14.445312 "/>
<path style=" stroke:none;fill-rule:nonzero;fill:rgb(44.313725%,88.627451%,93.72549%);fill-opacity:1;" d="M 34.027344 25 C 37.480469 25 40.277344 22.203125 40.277344 18.75 C 40.277344 15.296875 37.480469 12.5 34.027344 12.5 C 33.640625 12.5 33.261719 12.539062 32.894531 12.605469 C 31.777344 9.3125 28.667969 6.945312 25 6.945312 C 21.332031 6.945312 18.222656 9.3125 17.105469 12.605469 C 16.738281 12.535156 16.359375 12.5 15.972656 12.5 C 12.519531 12.5 9.722656 15.296875 9.722656 18.75 C 9.722656 22.203125 12.519531 25 15.972656 25 Z M 34.027344 25 "/>
<path style=" stroke:none;fill-rule:nonzero;fill:rgb(21.960784%,77.647059%,85.098039%);fill-opacity:1;" d="M 34.027344 12.5 C 33.640625 12.5 33.261719 12.539062 32.894531 12.605469 C 31.777344 9.3125 28.667969 6.945312 25 6.945312 C 24.945312 6.945312 24.886719 6.945312 24.832031 6.949219 L 24.832031 25 L 34.027344 25 C 37.480469 25 40.277344 22.203125 40.277344 18.75 C 40.277344 15.296875 37.480469 12.5 34.027344 12.5 Z M 34.027344 12.5 "/>
<path style=" stroke:none;fill-rule:nonzero;fill:rgb(99.607843%,88.235294%,52.941176%);fill-opacity:1;" d="M 16.667969 27.777344 L 33.332031 27.777344 L 33.332031 38.890625 L 16.667969 38.890625 Z M 16.667969 27.777344 "/>
<path style=" stroke:none;fill-rule:nonzero;fill:rgb(100%,77.647059%,10.588235%);fill-opacity:1;" d="M 24.832031 27.777344 L 33.332031 27.777344 L 33.332031 38.890625 L 24.832031 38.890625 Z M 24.832031 27.777344 "/>
<path style=" stroke:none;fill-rule:nonzero;fill:rgb(100%,77.647059%,10.588235%);fill-opacity:1;" d="M 33.332031 27.777344 L 25 33.332031 L 16.667969 27.777344 Z M 33.332031 27.777344 "/>
<path style=" stroke:none;fill-rule:nonzero;fill:rgb(83.137255%,54.509804%,2.745098%);fill-opacity:1;" d="M 33.332031 27.777344 L 24.832031 27.777344 L 24.832031 33.222656 L 25 33.332031 Z M 33.332031 27.777344 "/>
</g>
</svg>
