<?xml version="1.0" encoding="UTF-8"?>
<svg xmlns="http://www.w3.org/2000/svg" xmlns:xlink="http://www.w3.org/1999/xlink" width="40px" height="40px" viewBox="0 0 50 50" version="1.1">
<g id="surface1">
<path style=" stroke:none;fill-rule:nonzero;fill:rgb(4.705882%,75.686275%,55.686275%);fill-opacity:1;" d="M 42.554688 17.558594 C 42.554688 7.859375 34.695312 0 25 0 C 15.304688 0 7.445312 7.859375 7.445312 17.558594 C 7.445312 22.460938 9.589844 28.03125 12.703125 32.367188 L 25 50 L 37.300781 32.363281 C 41.007812 27.0625 42.554688 22.457031 42.554688 17.558594 Z M 42.554688 17.558594 "/>
<path style=" stroke:none;fill-rule:nonzero;fill:rgb(9.019608%,86.666667%,62.352941%);fill-opacity:1;" d="M 25 0 C 15.304688 0 7.445312 7.859375 7.445312 17.558594 "/>
<path style=" stroke:none;fill-rule:nonzero;fill:rgb(1.176471%,56.862745%,46.27451%);fill-opacity:1;" d="M 25 50 L 37.300781 32.363281 C 41.007812 27.0625 42.554688 22.457031 42.554688 17.558594 C 42.554688 7.859375 34.695312 0 25 0 "/>
<path style=" stroke:none;fill-rule:nonzero;fill:rgb(1.568627%,49.803922%,45.098039%);fill-opacity:1;" d="M 42.554688 17.558594 C 42.554688 7.859375 34.695312 0 25 0 "/>
<path style=" stroke:none;fill-rule:nonzero;fill:rgb(95.686275%,30.196078%,44.313725%);fill-opacity:1;" d="M 32.890625 16.558594 C 32.890625 20.914062 29.359375 24.449219 25 24.449219 C 20.640625 24.449219 17.109375 20.914062 17.109375 16.558594 C 17.109375 12.199219 20.640625 8.667969 25 8.667969 C 29.359375 8.667969 32.890625 12.199219 32.890625 16.558594 Z M 32.890625 16.558594 "/>
<path style=" stroke:none;fill-rule:nonzero;fill:rgb(100%,40%,47.45098%);fill-opacity:1;" d="M 17.113281 16.558594 C 17.113281 12.199219 20.644531 8.667969 25 8.667969 "/>
<path style=" stroke:none;fill-rule:nonzero;fill:rgb(83.921569%,3.529412%,28.627451%);fill-opacity:1;" d="M 25 8.667969 C 29.355469 8.667969 32.890625 12.199219 32.890625 16.558594 C 32.890625 20.914062 29.355469 24.445312 25 24.445312 "/>
<path style=" stroke:none;fill-rule:nonzero;fill:rgb(70.980392%,1.568627%,26.666667%);fill-opacity:1;" d="M 32.890625 16.558594 C 32.890625 20.914062 29.355469 24.445312 25 24.445312 "/>
</g>
</svg>
