<?xml version="1.0" encoding="UTF-8"?>
<svg xmlns="http://www.w3.org/2000/svg" xmlns:xlink="http://www.w3.org/1999/xlink" width="40px" height="40px" viewBox="0 0 50 50" version="1.1">
<defs>
<clipPath id="clip1">
  <path d="M 49.988281 25 C 49.988281 11.191406 38.800781 0 25 0 C 11.199219 0 0.0117188 11.191406 0.0117188 25 C 0.0117188 38.808594 11.199219 50 25 50 C 38.800781 50 49.988281 38.808594 49.988281 25 Z M 49.988281 25 "/>
</clipPath>
<clipPath id="clip2">
  <path d="M 14 18 L 18 18 L 18 24 L 14 24 Z M 14 18 "/>
</clipPath>
<clipPath id="clip3">
  <path d="M 49.988281 25 C 49.988281 11.191406 38.800781 0 25 0 C 11.199219 0 0.0117188 11.191406 0.0117188 25 C 0.0117188 38.808594 11.199219 50 25 50 C 38.800781 50 49.988281 38.808594 49.988281 25 Z M 49.988281 25 "/>
</clipPath>
<clipPath id="clip4">
  <path d="M 32 18 L 36 18 L 36 24 L 32 24 Z M 32 18 "/>
</clipPath>
<clipPath id="clip5">
  <path d="M 49.988281 25 C 49.988281 11.191406 38.800781 0 25 0 C 11.199219 0 0.0117188 11.191406 0.0117188 25 C 0.0117188 38.808594 11.199219 50 25 50 C 38.800781 50 49.988281 38.808594 49.988281 25 Z M 49.988281 25 "/>
</clipPath>
<clipPath id="clip6">
  <path d="M 15 7 L 36 7 L 36 28 L 15 28 Z M 15 7 "/>
</clipPath>
<clipPath id="clip7">
  <path d="M 49.988281 25 C 49.988281 11.191406 38.800781 0 25 0 C 11.199219 0 0.0117188 11.191406 0.0117188 25 C 0.0117188 38.808594 11.199219 50 25 50 C 38.800781 50 49.988281 38.808594 49.988281 25 Z M 49.988281 25 "/>
</clipPath>
<clipPath id="clip8">
  <path d="M 6 33 L 44 33 L 44 50 L 6 50 Z M 6 33 "/>
</clipPath>
<clipPath id="clip9">
  <path d="M 49.988281 25 C 49.988281 11.191406 38.800781 0 25 0 C 11.199219 0 0.0117188 11.191406 0.0117188 25 C 0.0117188 38.808594 11.199219 50 25 50 C 38.800781 50 49.988281 38.808594 49.988281 25 Z M 49.988281 25 "/>
</clipPath>
<clipPath id="clip10">
  <path d="M 21 22 L 29 22 L 29 38 L 21 38 Z M 21 22 "/>
</clipPath>
<clipPath id="clip11">
  <path d="M 49.988281 25 C 49.988281 11.191406 38.800781 0 25 0 C 11.199219 0 0.0117188 11.191406 0.0117188 25 C 0.0117188 38.808594 11.199219 50 25 50 C 38.800781 50 49.988281 38.808594 49.988281 25 Z M 49.988281 25 "/>
</clipPath>
<clipPath id="clip12">
  <path d="M 15 10 L 35 10 L 35 33 L 15 33 Z M 15 10 "/>
</clipPath>
<clipPath id="clip13">
  <path d="M 49.988281 25 C 49.988281 11.191406 38.800781 0 25 0 C 11.199219 0 0.0117188 11.191406 0.0117188 25 C 0.0117188 38.808594 11.199219 50 25 50 C 38.800781 50 49.988281 38.808594 49.988281 25 Z M 49.988281 25 "/>
</clipPath>
<clipPath id="clip14">
  <path d="M 15 9 L 35 9 L 35 23 L 15 23 Z M 15 9 "/>
</clipPath>
<clipPath id="clip15">
  <path d="M 49.988281 25 C 49.988281 11.191406 38.800781 0 25 0 C 11.199219 0 0.0117188 11.191406 0.0117188 25 C 0.0117188 38.808594 11.199219 50 25 50 C 38.800781 50 49.988281 38.808594 49.988281 25 Z M 49.988281 25 "/>
</clipPath>
<clipPath id="clip16">
  <path d="M 17 33 L 26 33 L 26 41 L 17 41 Z M 17 33 "/>
</clipPath>
<clipPath id="clip17">
  <path d="M 49.988281 25 C 49.988281 11.191406 38.800781 0 25 0 C 11.199219 0 0.0117188 11.191406 0.0117188 25 C 0.0117188 38.808594 11.199219 50 25 50 C 38.800781 50 49.988281 38.808594 49.988281 25 Z M 49.988281 25 "/>
</clipPath>
<clipPath id="clip18">
  <path d="M 9 25 L 34 25 L 34 49 L 9 49 Z M 9 25 "/>
</clipPath>
<clipPath id="clip19">
  <path d="M 49.988281 25 C 49.988281 11.191406 38.800781 0 25 0 C 11.199219 0 0.0117188 11.191406 0.0117188 25 C 0.0117188 38.808594 11.199219 50 25 50 C 38.800781 50 49.988281 38.808594 49.988281 25 Z M 49.988281 25 "/>
</clipPath>
<clipPath id="clip20">
  <path d="M 25 33 L 33 33 L 33 41 L 25 41 Z M 25 33 "/>
</clipPath>
<clipPath id="clip21">
  <path d="M 49.988281 25 C 49.988281 11.191406 38.800781 0 25 0 C 11.199219 0 0.0117188 11.191406 0.0117188 25 C 0.0117188 38.808594 11.199219 50 25 50 C 38.800781 50 49.988281 38.808594 49.988281 25 Z M 49.988281 25 "/>
</clipPath>
<clipPath id="clip22">
  <path d="M 16 25 L 41 25 L 41 49 L 16 49 Z M 16 25 "/>
</clipPath>
<clipPath id="clip23">
  <path d="M 49.988281 25 C 49.988281 11.191406 38.800781 0 25 0 C 11.199219 0 0.0117188 11.191406 0.0117188 25 C 0.0117188 38.808594 11.199219 50 25 50 C 38.800781 50 49.988281 38.808594 49.988281 25 Z M 49.988281 25 "/>
</clipPath>
<clipPath id="clip24">
  <path d="M 18 13 L 27 13 L 27 16 L 18 16 Z M 18 13 "/>
</clipPath>
<clipPath id="clip25">
  <path d="M 49.988281 25 C 49.988281 11.191406 38.800781 0 25 0 C 11.199219 0 0.0117188 11.191406 0.0117188 25 C 0.0117188 38.808594 11.199219 50 25 50 C 38.800781 50 49.988281 38.808594 49.988281 25 Z M 49.988281 25 "/>
</clipPath>
<clipPath id="clip26">
  <path d="M 19 21 L 23 21 L 23 23 L 19 23 Z M 19 21 "/>
</clipPath>
<clipPath id="clip27">
  <path d="M 49.988281 25 C 49.988281 11.191406 38.800781 0 25 0 C 11.199219 0 0.0117188 11.191406 0.0117188 25 C 0.0117188 38.808594 11.199219 50 25 50 C 38.800781 50 49.988281 38.808594 49.988281 25 Z M 49.988281 25 "/>
</clipPath>
<clipPath id="clip28">
  <path d="M 20 21 L 23 21 L 23 23 L 20 23 Z M 20 21 "/>
</clipPath>
<clipPath id="clip29">
  <path d="M 49.988281 25 C 49.988281 11.191406 38.800781 0 25 0 C 11.199219 0 0.0117188 11.191406 0.0117188 25 C 0.0117188 38.808594 11.199219 50 25 50 C 38.800781 50 49.988281 38.808594 49.988281 25 Z M 49.988281 25 "/>
</clipPath>
<radialGradient id="radial0" gradientUnits="userSpaceOnUse" cx="74.3316" cy="76.6186" fx="74.3316" fy="76.6186" r="2.615" gradientTransform="matrix(0.287356,0,0,0.287356,0,0)">
<stop offset="0" style="stop-color:rgb(38.431373%,29.019608%,18.039216%);stop-opacity:1;"/>
<stop offset="0.036" style="stop-color:rgb(42.745098%,33.72549%,20%);stop-opacity:1;"/>
<stop offset="0.1218" style="stop-color:rgb(50.588235%,41.960784%,23.921569%);stop-opacity:1;"/>
<stop offset="0.2231" style="stop-color:rgb(56.470588%,48.627451%,27.058824%);stop-opacity:1;"/>
<stop offset="0.348" style="stop-color:rgb(60.784314%,53.333333%,29.019608%);stop-opacity:1;"/>
<stop offset="0.5227" style="stop-color:rgb(63.137255%,56.078431%,30.196078%);stop-opacity:1;"/>
<stop offset="1" style="stop-color:rgb(63.921569%,56.862745%,30.588235%);stop-opacity:1;"/>
</radialGradient>
<clipPath id="clip30">
  <path d="M 21 21 L 22 21 L 22 23 L 21 23 Z M 21 21 "/>
</clipPath>
<clipPath id="clip31">
  <path d="M 49.988281 25 C 49.988281 11.191406 38.800781 0 25 0 C 11.199219 0 0.0117188 11.191406 0.0117188 25 C 0.0117188 38.808594 11.199219 50 25 50 C 38.800781 50 49.988281 38.808594 49.988281 25 Z M 49.988281 25 "/>
</clipPath>
<clipPath id="clip32">
  <path d="M 27 21 L 31 21 L 31 23 L 27 23 Z M 27 21 "/>
</clipPath>
<clipPath id="clip33">
  <path d="M 49.988281 25 C 49.988281 11.191406 38.800781 0 25 0 C 11.199219 0 0.0117188 11.191406 0.0117188 25 C 0.0117188 38.808594 11.199219 50 25 50 C 38.800781 50 49.988281 38.808594 49.988281 25 Z M 49.988281 25 "/>
</clipPath>
<clipPath id="clip34">
  <path d="M 27 21 L 30 21 L 30 23 L 27 23 Z M 27 21 "/>
</clipPath>
<clipPath id="clip35">
  <path d="M 49.988281 25 C 49.988281 11.191406 38.800781 0 25 0 C 11.199219 0 0.0117188 11.191406 0.0117188 25 C 0.0117188 38.808594 11.199219 50 25 50 C 38.800781 50 49.988281 38.808594 49.988281 25 Z M 49.988281 25 "/>
</clipPath>
<radialGradient id="radial1" gradientUnits="userSpaceOnUse" cx="-471.4106" cy="76.6186" fx="-471.4106" fy="76.6186" r="2.6152" gradientTransform="matrix(-0.287356,0,0,0.287356,-106.762126,0)">
<stop offset="0" style="stop-color:rgb(38.431373%,29.019608%,18.039216%);stop-opacity:1;"/>
<stop offset="0.036" style="stop-color:rgb(42.745098%,33.72549%,20%);stop-opacity:1;"/>
<stop offset="0.1218" style="stop-color:rgb(50.588235%,41.960784%,23.921569%);stop-opacity:1;"/>
<stop offset="0.2231" style="stop-color:rgb(56.470588%,48.627451%,27.058824%);stop-opacity:1;"/>
<stop offset="0.348" style="stop-color:rgb(60.784314%,53.333333%,29.019608%);stop-opacity:1;"/>
<stop offset="0.5227" style="stop-color:rgb(63.137255%,56.078431%,30.196078%);stop-opacity:1;"/>
<stop offset="1" style="stop-color:rgb(63.921569%,56.862745%,30.588235%);stop-opacity:1;"/>
</radialGradient>
<clipPath id="clip36">
  <path d="M 28 21 L 30 21 L 30 23 L 28 23 Z M 28 21 "/>
</clipPath>
<clipPath id="clip37">
  <path d="M 49.988281 25 C 49.988281 11.191406 38.800781 0 25 0 C 11.199219 0 0.0117188 11.191406 0.0117188 25 C 0.0117188 38.808594 11.199219 50 25 50 C 38.800781 50 49.988281 38.808594 49.988281 25 Z M 49.988281 25 "/>
</clipPath>
<clipPath id="clip38">
  <path d="M 23 25 L 27 25 L 27 27 L 23 27 Z M 23 25 "/>
</clipPath>
<clipPath id="clip39">
  <path d="M 49.988281 25 C 49.988281 11.191406 38.800781 0 25 0 C 11.199219 0 0.0117188 11.191406 0.0117188 25 C 0.0117188 38.808594 11.199219 50 25 50 C 38.800781 50 49.988281 38.808594 49.988281 25 Z M 49.988281 25 "/>
</clipPath>
<clipPath id="clip40">
  <path d="M 22 28 L 28 28 L 28 30 L 22 30 Z M 22 28 "/>
</clipPath>
<clipPath id="clip41">
  <path d="M 49.988281 25 C 49.988281 11.191406 38.800781 0 25 0 C 11.199219 0 0.0117188 11.191406 0.0117188 25 C 0.0117188 38.808594 11.199219 50 25 50 C 38.800781 50 49.988281 38.808594 49.988281 25 Z M 49.988281 25 "/>
</clipPath>
<clipPath id="clip42">
  <path d="M 18 18 L 24 18 L 24 20 L 18 20 Z M 18 18 "/>
</clipPath>
<clipPath id="clip43">
  <path d="M 49.988281 25 C 49.988281 11.191406 38.800781 0 25 0 C 11.199219 0 0.0117188 11.191406 0.0117188 25 C 0.0117188 38.808594 11.199219 50 25 50 C 38.800781 50 49.988281 38.808594 49.988281 25 Z M 49.988281 25 "/>
</clipPath>
<clipPath id="clip44">
  <path d="M 26 18 L 32 18 L 32 20 L 26 20 Z M 26 18 "/>
</clipPath>
<clipPath id="clip45">
  <path d="M 49.988281 25 C 49.988281 11.191406 38.800781 0 25 0 C 11.199219 0 0.0117188 11.191406 0.0117188 25 C 0.0117188 38.808594 11.199219 50 25 50 C 38.800781 50 49.988281 38.808594 49.988281 25 Z M 49.988281 25 "/>
</clipPath>
<clipPath id="clip46">
  <path d="M 17 19 L 33 19 L 33 26 L 17 26 Z M 17 19 "/>
</clipPath>
<clipPath id="clip47">
  <path d="M 49.988281 25 C 49.988281 11.191406 38.800781 0 25 0 C 11.199219 0 0.0117188 11.191406 0.0117188 25 C 0.0117188 38.808594 11.199219 50 25 50 C 38.800781 50 49.988281 38.808594 49.988281 25 Z M 49.988281 25 "/>
</clipPath>
<clipPath id="clip48">
  <path d="M 17 13 L 34 13 L 34 19 L 17 19 Z M 17 13 "/>
</clipPath>
<clipPath id="clip49">
  <path d="M 49.988281 25 C 49.988281 11.191406 38.800781 0 25 0 C 11.199219 0 0.0117188 11.191406 0.0117188 25 C 0.0117188 38.808594 11.199219 50 25 50 C 38.800781 50 49.988281 38.808594 49.988281 25 Z M 49.988281 25 "/>
</clipPath>
<clipPath id="clip50">
  <path d="M 14 6 L 29 6 L 29 17 L 14 17 Z M 14 6 "/>
</clipPath>
<clipPath id="clip51">
  <path d="M 49.988281 25 C 49.988281 11.191406 38.800781 0 25 0 C 11.199219 0 0.0117188 11.191406 0.0117188 25 C 0.0117188 38.808594 11.199219 50 25 50 C 38.800781 50 49.988281 38.808594 49.988281 25 Z M 49.988281 25 "/>
</clipPath>
</defs>
<g id="surface1">
<g clip-path="url(#clip1)" clip-rule="nonzero">
<path style=" stroke:none;fill-rule:nonzero;fill:rgb(98.039216%,60.784314%,30.588235%);fill-opacity:1;" d="M 49.988281 25 C 49.988281 11.191406 38.800781 0 25 0 C 11.199219 0 0.0117188 11.191406 0.0117188 25 C 0.0117188 38.808594 11.199219 50 25 50 C 38.800781 50 49.988281 38.808594 49.988281 25 Z M 49.988281 25 "/>
</g>
<g clip-path="url(#clip2)" clip-rule="nonzero">
<g clip-path="url(#clip3)" clip-rule="nonzero">
<path style=" stroke:none;fill-rule:evenodd;fill:rgb(96.078431%,74.509804%,57.254902%);fill-opacity:1;" d="M 14.925781 18.785156 C 14.234375 19.011719 13.992188 20.164062 14.382812 21.359375 C 14.777344 22.558594 15.65625 23.34375 16.351562 23.113281 C 17.042969 22.886719 17.28125 21.734375 16.890625 20.535156 C 16.496094 19.339844 15.617188 18.554688 14.925781 18.785156 Z M 14.925781 18.785156 "/>
</g>
</g>
<g clip-path="url(#clip4)" clip-rule="nonzero">
<g clip-path="url(#clip5)" clip-rule="nonzero">
<path style=" stroke:none;fill-rule:evenodd;fill:rgb(96.078431%,74.509804%,57.254902%);fill-opacity:1;" d="M 35.144531 18.785156 C 34.453125 18.554688 33.574219 19.339844 33.179688 20.535156 C 32.785156 21.734375 33.027344 22.886719 33.71875 23.113281 C 34.410156 23.34375 35.289062 22.558594 35.683594 21.363281 C 36.078125 20.167969 35.835938 19.011719 35.144531 18.785156 Z M 35.144531 18.785156 "/>
</g>
</g>
<g clip-path="url(#clip6)" clip-rule="nonzero">
<g clip-path="url(#clip7)" clip-rule="nonzero">
<path style=" stroke:none;fill-rule:evenodd;fill:rgb(57.254902%,39.607843%,23.921569%);fill-opacity:1;" d="M 31.613281 9.335938 C 33.546875 9.644531 34.617188 10.96875 35.074219 12.769531 C 36.265625 17.457031 33.769531 27.621094 25.128906 27.742188 C 20.675781 27.804688 17.464844 26.667969 16.292969 23.0625 C 15.125 19.457031 14.644531 13.644531 17.1875 10.386719 C 20.386719 6.289062 27.097656 6.25 31.613281 9.335938 Z M 31.613281 9.335938 "/>
</g>
</g>
<g clip-path="url(#clip8)" clip-rule="nonzero">
<g clip-path="url(#clip9)" clip-rule="nonzero">
<path style="fill-rule:evenodd;fill:rgb(29.803922%,61.568627%,82.352941%);fill-opacity:1;stroke-width:1.0844;stroke-linecap:round;stroke-linejoin:round;stroke:rgb(29.803922%,61.568627%,82.352941%);stroke-opacity:1;stroke-miterlimit:10;" d="M 74.439375 115.628438 C 46.300313 127.957969 37.858594 134.537344 34.528125 137.487188 C 29.376094 142.041094 26.358281 159.604219 23.326875 174 L 150.673125 174 C 147.641719 159.604219 144.96375 142.041094 139.825313 137.487188 C 136.494844 134.537344 128.352188 128.134688 100.213125 115.791563 Z M 74.439375 115.628438 " transform="matrix(0.287356,0,0,0.287356,0,0)"/>
</g>
</g>
<g clip-path="url(#clip10)" clip-rule="nonzero">
<g clip-path="url(#clip11)" clip-rule="nonzero">
<path style=" stroke:none;fill-rule:evenodd;fill:rgb(96.078431%,74.509804%,57.254902%);fill-opacity:1;" d="M 21.125 26.15625 L 21.125 35.746094 C 23.28125 38.296875 26.816406 38.390625 28.976562 35.746094 L 28.976562 26.15625 C 28.976562 21.316406 21.125 21.316406 21.125 26.15625 Z M 21.125 26.15625 "/>
</g>
</g>
<g clip-path="url(#clip12)" clip-rule="nonzero">
<g clip-path="url(#clip13)" clip-rule="nonzero">
<path style=" stroke:none;fill-rule:evenodd;fill:rgb(96.078431%,74.509804%,57.254902%);fill-opacity:1;" d="M 25.050781 10.0625 C 11.871094 10.0625 16.609375 27.234375 17.472656 28.503906 C 18.421875 29.898438 22.921875 32.359375 25.050781 32.359375 C 27.179688 32.359375 31.679688 29.589844 32.628906 28.191406 C 33.488281 26.921875 38.230469 10.0625 25.050781 10.0625 Z M 25.050781 10.0625 "/>
</g>
</g>
<g clip-path="url(#clip14)" clip-rule="nonzero">
<g clip-path="url(#clip15)" clip-rule="nonzero">
<path style=" stroke:none;fill-rule:evenodd;fill:rgb(57.254902%,39.607843%,23.921569%);fill-opacity:1;" d="M 18.632812 14.199219 C 20.949219 15.609375 22.738281 13.507812 24.832031 14.410156 C 26.921875 15.308594 32.917969 12.867188 34.152344 22.386719 C 36.132812 15.484375 32.792969 9.703125 25.246094 9.375 C 17.1875 9.023438 13.925781 15.324219 16.152344 22.183594 C 16.007812 18.46875 16.914062 16.035156 18.632812 14.199219 Z M 18.632812 14.199219 "/>
</g>
</g>
<g clip-path="url(#clip16)" clip-rule="nonzero">
<g clip-path="url(#clip17)" clip-rule="nonzero">
<path style=" stroke:none;fill-rule:evenodd;fill:rgb(100%,100%,100%);fill-opacity:1;" d="M 20.75 33.128906 L 17.964844 34.636719 L 22.003906 40.234375 L 25.066406 37.328125 Z M 20.75 33.128906 "/>
</g>
</g>
<g clip-path="url(#clip18)" clip-rule="nonzero">
<g clip-path="url(#clip19)" clip-rule="nonzero">
<path style="fill:none;stroke-width:2;stroke-linecap:round;stroke-linejoin:miter;stroke:rgb(100%,100%,100%);stroke-opacity:1;stroke-miterlimit:10;" d="M 72.21 115.288594 L 62.517656 120.535781 L 76.573594 140.015625 L 87.231094 129.901875 Z M 72.21 115.288594 " transform="matrix(0.287356,0,0,0.287356,0,0)"/>
</g>
</g>
<g clip-path="url(#clip20)" clip-rule="nonzero">
<g clip-path="url(#clip21)" clip-rule="nonzero">
<path style=" stroke:none;fill-rule:evenodd;fill:rgb(100%,100%,100%);fill-opacity:1;" d="M 29.386719 33.128906 L 32.167969 34.636719 L 28.132812 40.234375 L 25.066406 37.328125 Z M 29.386719 33.128906 "/>
</g>
</g>
<g clip-path="url(#clip22)" clip-rule="nonzero">
<g clip-path="url(#clip23)" clip-rule="nonzero">
<path style="fill:none;stroke-width:2;stroke-linecap:round;stroke-linejoin:miter;stroke:rgb(100%,100%,100%);stroke-opacity:1;stroke-miterlimit:10;" d="M 102.265781 115.288594 L 111.944531 120.535781 L 97.902188 140.015625 L 87.231094 129.901875 Z M 102.265781 115.288594 " transform="matrix(0.287356,0,0,0.287356,0,0)"/>
</g>
</g>
<g clip-path="url(#clip24)" clip-rule="nonzero">
<g clip-path="url(#clip25)" clip-rule="nonzero">
<path style=" stroke:none;fill-rule:nonzero;fill:rgb(57.254902%,39.607843%,23.921569%);fill-opacity:1;" d="M 18.429688 13.609375 C 18.605469 14.75 20.296875 14.921875 21.203125 15.011719 C 22.980469 15.1875 25.183594 14.507812 26.628906 13.492188 C 26.738281 13.417969 26.699219 13.253906 26.5625 13.246094 C 25.019531 13.148438 23.625 14.226562 22.078125 14.355469 C 20.957031 14.449219 19.441406 14.296875 18.570312 13.527344 C 18.503906 13.464844 18.414062 13.523438 18.429688 13.609375 Z M 18.429688 13.609375 "/>
</g>
</g>
<g clip-path="url(#clip26)" clip-rule="nonzero">
<g clip-path="url(#clip27)" clip-rule="nonzero">
<path style=" stroke:none;fill-rule:nonzero;fill:rgb(100%,100%,100%);fill-opacity:1;" d="M 19.671875 22.140625 C 19.671875 22.140625 20.097656 22.863281 21.414062 22.863281 C 22.730469 22.863281 22.964844 22.246094 22.976562 22.027344 C 22.976562 22.027344 22.46875 21.167969 21.433594 21.167969 C 20.398438 21.167969 19.671875 22.140625 19.671875 22.140625 Z M 19.671875 22.140625 "/>
</g>
</g>
<g clip-path="url(#clip28)" clip-rule="nonzero">
<g clip-path="url(#clip29)" clip-rule="nonzero">
<path style=" stroke:none;fill-rule:nonzero;fill:url(#radial0);" d="M 22.109375 22.015625 C 22.109375 22.433594 21.773438 22.769531 21.359375 22.769531 C 20.945312 22.769531 20.609375 22.433594 20.609375 22.015625 C 20.609375 21.601562 20.945312 21.265625 21.359375 21.265625 C 21.773438 21.265625 22.109375 21.601562 22.109375 22.015625 Z M 22.109375 22.015625 "/>
<path style=" stroke:none;fill-rule:nonzero;fill:rgb(38.431373%,29.019608%,18.039216%);fill-opacity:1;" d="M 21.359375 21.339844 C 21.734375 21.339844 22.035156 21.644531 22.035156 22.015625 C 22.035156 22.390625 21.730469 22.691406 21.359375 22.691406 C 20.988281 22.691406 20.683594 22.390625 20.683594 22.015625 C 20.683594 21.644531 20.988281 21.339844 21.359375 21.339844 M 21.359375 21.191406 C 20.902344 21.191406 20.53125 21.558594 20.53125 22.015625 C 20.53125 22.472656 20.902344 22.84375 21.359375 22.84375 C 21.816406 22.84375 22.1875 22.472656 22.1875 22.015625 C 22.1875 21.558594 21.816406 21.191406 21.359375 21.191406 Z M 21.359375 21.191406 "/>
</g>
</g>
<g clip-path="url(#clip30)" clip-rule="nonzero">
<g clip-path="url(#clip31)" clip-rule="nonzero">
<path style=" stroke:none;fill-rule:nonzero;fill:rgb(0%,0%,0%);fill-opacity:1;" d="M 21.707031 22.015625 C 21.707031 22.207031 21.550781 22.363281 21.359375 22.363281 C 21.167969 22.363281 21.015625 22.207031 21.015625 22.015625 C 21.015625 21.824219 21.167969 21.671875 21.359375 21.671875 C 21.550781 21.671875 21.707031 21.824219 21.707031 22.015625 Z M 21.707031 22.015625 "/>
</g>
</g>
<g clip-path="url(#clip32)" clip-rule="nonzero">
<g clip-path="url(#clip33)" clip-rule="nonzero">
<path style=" stroke:none;fill-rule:nonzero;fill:rgb(100%,100%,100%);fill-opacity:1;" d="M 30.390625 22.140625 C 30.390625 22.140625 29.960938 22.863281 28.644531 22.863281 C 27.328125 22.863281 27.097656 22.246094 27.085938 22.027344 C 27.085938 22.027344 27.589844 21.167969 28.625 21.167969 C 29.664062 21.167969 30.390625 22.140625 30.390625 22.140625 Z M 30.390625 22.140625 "/>
</g>
</g>
<g clip-path="url(#clip34)" clip-rule="nonzero">
<g clip-path="url(#clip35)" clip-rule="nonzero">
<path style=" stroke:none;fill-rule:nonzero;fill:url(#radial1);" d="M 29.453125 22.015625 C 29.453125 22.433594 29.117188 22.769531 28.699219 22.769531 C 28.285156 22.769531 27.949219 22.433594 27.949219 22.015625 C 27.949219 21.601562 28.285156 21.265625 28.699219 21.265625 C 29.117188 21.265625 29.453125 21.601562 29.453125 22.015625 Z M 29.453125 22.015625 "/>
<path style=" stroke:none;fill-rule:nonzero;fill:rgb(38.431373%,29.019608%,18.039216%);fill-opacity:1;" d="M 28.699219 21.339844 C 29.074219 21.339844 29.375 21.644531 29.375 22.015625 C 29.375 22.390625 29.074219 22.691406 28.699219 22.691406 C 28.328125 22.691406 28.023438 22.390625 28.023438 22.015625 C 28.023438 21.644531 28.328125 21.339844 28.699219 21.339844 M 28.699219 21.191406 C 28.242188 21.191406 27.875 21.558594 27.875 22.015625 C 27.875 22.472656 28.242188 22.84375 28.699219 22.84375 C 29.15625 22.84375 29.527344 22.472656 29.527344 22.015625 C 29.527344 21.558594 29.15625 21.191406 28.699219 21.191406 Z M 28.699219 21.191406 "/>
</g>
</g>
<g clip-path="url(#clip36)" clip-rule="nonzero">
<g clip-path="url(#clip37)" clip-rule="nonzero">
<path style=" stroke:none;fill-rule:nonzero;fill:rgb(0%,0%,0%);fill-opacity:1;" d="M 29.046875 22.015625 C 29.046875 22.207031 28.890625 22.363281 28.699219 22.363281 C 28.511719 22.363281 28.355469 22.207031 28.355469 22.015625 C 28.355469 21.824219 28.511719 21.671875 28.699219 21.671875 C 28.890625 21.671875 29.046875 21.824219 29.046875 22.015625 Z M 29.046875 22.015625 "/>
</g>
</g>
<g clip-path="url(#clip38)" clip-rule="nonzero">
<g clip-path="url(#clip39)" clip-rule="nonzero">
<path style=" stroke:none;fill-rule:nonzero;fill:rgb(89.411765%,56.078431%,40.392157%);fill-opacity:1;" d="M 23.582031 25.605469 C 23.375 25.730469 23.332031 25.941406 23.542969 26.09375 C 23.898438 26.351562 24.40625 26.375 24.824219 26.375 C 25.265625 26.375 25.792969 26.335938 26.175781 26.09375 C 26.371094 25.96875 26.507812 25.574219 26.234375 25.453125 C 26.179688 25.429688 26.101562 25.453125 26.105469 25.523438 C 26.113281 25.617188 26.203125 25.707031 26.1875 25.792969 C 26.164062 25.90625 25.992188 25.96875 25.898438 26.003906 C 25.613281 26.113281 25.292969 26.132812 24.988281 26.140625 C 24.71875 26.148438 23.332031 26.167969 23.621094 25.644531 C 23.632812 25.621094 23.605469 25.59375 23.582031 25.605469 Z M 23.582031 25.605469 "/>
</g>
</g>
<g clip-path="url(#clip40)" clip-rule="nonzero">
<g clip-path="url(#clip41)" clip-rule="nonzero">
<path style=" stroke:none;fill-rule:nonzero;fill:rgb(89.411765%,56.078431%,40.392157%);fill-opacity:1;" d="M 22.574219 29.019531 C 24 30.074219 26.21875 29.78125 27.597656 28.792969 C 27.640625 28.765625 27.605469 28.707031 27.558594 28.726562 C 25.871094 29.453125 24.339844 29.632812 22.613281 28.925781 C 22.554688 28.902344 22.53125 28.988281 22.574219 29.019531 Z M 22.574219 29.019531 "/>
</g>
</g>
<g clip-path="url(#clip42)" clip-rule="nonzero">
<g clip-path="url(#clip43)" clip-rule="nonzero">
<path style=" stroke:none;fill-rule:nonzero;fill:rgb(57.254902%,39.607843%,23.921569%);fill-opacity:1;" d="M 18.195312 19.105469 C 19.820312 18.867188 21.378906 18.632812 22.890625 19.484375 C 23.035156 19.566406 23.160156 19.347656 23.019531 19.261719 C 21.769531 18.488281 19.445312 18.164062 18.179688 19.070312 C 18.160156 19.082031 18.171875 19.109375 18.195312 19.105469 Z M 18.195312 19.105469 "/>
</g>
</g>
<g clip-path="url(#clip44)" clip-rule="nonzero">
<g clip-path="url(#clip45)" clip-rule="nonzero">
<path style=" stroke:none;fill-rule:nonzero;fill:rgb(57.254902%,39.607843%,23.921569%);fill-opacity:1;" d="M 31.820312 19.070312 C 30.554688 18.164062 28.230469 18.488281 26.980469 19.261719 C 26.839844 19.347656 26.964844 19.566406 27.109375 19.484375 C 28.621094 18.632812 30.179688 18.867188 31.804688 19.105469 C 31.828125 19.109375 31.839844 19.082031 31.820312 19.070312 Z M 31.820312 19.070312 "/>
</g>
</g>
<g clip-path="url(#clip46)" clip-rule="nonzero">
<g clip-path="url(#clip47)" clip-rule="nonzero">
<path style=" stroke:none;fill-rule:evenodd;fill:rgb(3.921569%,43.529412%,56.470588%);fill-opacity:1;" d="M 28.675781 25.261719 C 28.746094 25.257812 28.816406 25.253906 28.890625 25.25 C 30.925781 25.078125 31.425781 24.164062 31.65625 23.011719 C 31.90625 21.742188 31.921875 21.300781 32.25 21.183594 C 32.488281 21.097656 32.550781 20.816406 32.542969 20.484375 C 32.53125 20.15625 32.523438 20.121094 32.125 19.984375 C 31.8125 19.871094 30.074219 19.714844 28.773438 19.796875 L 28.765625 20.136719 C 29.792969 20.082031 30.785156 20.207031 31.070312 20.390625 C 31.722656 20.8125 31.53125 22.855469 30.984375 23.867188 C 30.601562 24.566406 29.589844 24.925781 28.679688 24.941406 Z M 24.875 20.464844 C 24.425781 20.476562 22.585938 19.945312 21.28125 19.832031 C 21.1875 19.824219 21.09375 19.816406 20.996094 19.8125 L 20.988281 20.152344 C 22.050781 20.203125 23.152344 20.441406 23.527344 21.007812 C 24.144531 21.941406 23.035156 24.214844 22.03125 24.722656 C 21.726562 24.875 21.324219 24.953125 20.902344 24.957031 L 20.894531 25.28125 C 22.652344 25.28125 23.304688 24.015625 23.519531 23.59375 C 23.929688 22.796875 23.84375 21.699219 24.851562 21.695312 C 25.855469 21.691406 25.726562 22.769531 26.085938 23.566406 C 26.277344 23.996094 26.847656 25.3125 28.675781 25.261719 L 28.679688 24.941406 C 28.230469 24.949219 27.800781 24.871094 27.488281 24.707031 C 26.515625 24.207031 25.539062 21.9375 26.214844 21.003906 C 26.625 20.441406 27.714844 20.195312 28.765625 20.136719 L 28.773438 19.796875 C 28.691406 19.800781 28.613281 19.808594 28.535156 19.816406 C 27.359375 19.921875 25.929688 20.4375 24.875 20.464844 Z M 20.996094 19.8125 C 19.707031 19.742188 17.996094 19.90625 17.679688 20.015625 C 17.273438 20.152344 17.261719 20.191406 17.234375 20.519531 C 17.207031 20.851562 17.25 21.132812 17.480469 21.21875 C 17.800781 21.332031 17.792969 21.773438 17.964844 23.042969 C 18.125 24.195312 18.570312 25.105469 20.59375 25.265625 C 20.695312 25.277344 20.796875 25.28125 20.894531 25.28125 L 20.902344 24.957031 C 19.96875 24.964844 18.9375 24.613281 18.585938 23.894531 C 18.097656 22.886719 18.03125 20.847656 18.710938 20.417969 C 19.003906 20.234375 19.980469 20.105469 20.988281 20.152344 Z M 20.996094 19.8125 "/>
</g>
</g>
<g clip-path="url(#clip48)" clip-rule="nonzero">
<g clip-path="url(#clip49)" clip-rule="nonzero">
<path style=" stroke:none;fill-rule:nonzero;fill:rgb(57.254902%,39.607843%,23.921569%);fill-opacity:1;" d="M 33.4375 17.316406 C 33.0625 17.257812 32.761719 17.039062 32.5 16.773438 C 32.359375 16.625 32.257812 16.445312 32.195312 16.253906 C 32.128906 16.046875 32.1875 15.914062 32.027344 15.738281 C 31.949219 15.652344 31.792969 15.628906 31.699219 15.695312 C 31.695312 15.699219 31.695312 15.699219 31.695312 15.699219 C 31.699219 15.636719 31.710938 15.566406 31.722656 15.496094 C 31.769531 15.238281 31.496094 15.078125 31.296875 15.25 C 31.179688 15.34375 31.105469 15.457031 31.054688 15.582031 C 31.058594 15.359375 30.878906 15.140625 30.582031 15.203125 C 30.347656 15.253906 29.972656 15.230469 29.660156 15.117188 C 29.667969 15.078125 29.667969 15.039062 29.65625 14.996094 C 29.535156 14.625 29.269531 14.414062 29.101562 14.070312 C 28.945312 13.757812 28.421875 13.832031 28.347656 14.171875 C 28.347656 14.183594 28.347656 14.199219 28.34375 14.210938 C 28.285156 14.101562 28.222656 13.988281 28.148438 13.878906 C 28.035156 13.722656 27.804688 13.742188 27.742188 13.933594 C 27.695312 14.074219 27.6875 14.226562 27.707031 14.375 C 27.589844 14.425781 27.449219 14.472656 27.296875 14.507812 C 27.277344 14.496094 27.257812 14.480469 27.230469 14.46875 C 26.738281 14.265625 26.238281 14.109375 25.832031 13.746094 C 25.695312 13.621094 25.5 13.625 25.367188 13.71875 C 25.152344 13.566406 24.828125 13.582031 24.632812 13.871094 C 23.902344 14.941406 23.378906 13.960938 22.820312 13.683594 C 22.578125 13.566406 22.285156 13.707031 22.28125 13.992188 C 22.28125 14.046875 22.292969 14.09375 22.296875 14.148438 C 22.253906 14.089844 22.210938 14.035156 22.179688 13.972656 C 22.019531 13.695312 21.675781 13.691406 21.449219 13.878906 C 20.960938 14.285156 20.347656 14.464844 19.726562 14.527344 C 19.636719 14.535156 19.5625 14.535156 19.484375 14.535156 C 19.582031 14.449219 19.644531 14.316406 19.59375 14.1875 C 19.5625 14.121094 19.582031 14.160156 19.585938 14.207031 C 19.574219 14.074219 19.496094 13.925781 19.347656 13.898438 C 19.085938 13.847656 18.863281 13.703125 18.597656 13.660156 C 18.410156 13.632812 18.265625 13.835938 18.40625 13.984375 C 18.429688 14.011719 18.453125 14.035156 18.472656 14.058594 C 18.46875 14.082031 18.46875 14.109375 18.472656 14.132812 C 18.285156 13.988281 18.101562 13.816406 17.886719 13.644531 C 17.785156 13.5625 17.609375 13.574219 17.574219 13.726562 C 17.082031 15.808594 20.199219 15.453125 21.628906 14.8125 C 22.636719 16.054688 24.828125 16.300781 25.457031 14.722656 C 25.84375 15.246094 26.671875 15.316406 27.398438 15.144531 C 27.585938 15.113281 27.761719 15.058594 27.925781 14.980469 C 28.097656 15.273438 28.335938 15.527344 28.570312 15.691406 C 29.234375 16.160156 30.03125 16.222656 30.789062 15.941406 C 30.886719 15.90625 30.953125 15.847656 30.996094 15.777344 C 30.921875 16.214844 31.121094 16.730469 31.378906 17.058594 C 31.835938 17.640625 32.582031 18.078125 33.34375 18.007812 C 33.707031 17.972656 33.855469 17.382812 33.4375 17.316406 Z M 33.4375 17.316406 "/>
</g>
</g>
<g clip-path="url(#clip50)" clip-rule="nonzero">
<g clip-path="url(#clip51)" clip-rule="nonzero">
<path style=" stroke:none;fill-rule:nonzero;fill:rgb(57.254902%,39.607843%,23.921569%);fill-opacity:1;" d="M 17.644531 11.167969 C 17.644531 11.148438 17.648438 11.132812 17.648438 11.113281 C 17.765625 11.074219 17.828125 10.992188 17.847656 10.890625 C 18.058594 10.9375 18.289062 10.828125 18.273438 10.542969 C 18.234375 9.960938 18.316406 9.570312 18.925781 9.425781 C 19.402344 9.3125 19.933594 9.386719 20.414062 9.414062 C 20.746094 9.433594 20.910156 8.988281 20.679688 8.765625 C 20.503906 8.59375 20.289062 8.476562 20.054688 8.394531 C 20.160156 8.304688 20.273438 8.234375 20.382812 8.195312 C 20.457031 8.167969 20.535156 8.15625 20.613281 8.148438 C 20.582031 8.304688 20.582031 8.472656 20.605469 8.648438 C 20.632812 8.84375 20.945312 8.792969 20.945312 8.605469 C 20.941406 8.4375 20.984375 8.292969 21.058594 8.1875 C 21.230469 8.234375 21.382812 8.308594 21.566406 8.238281 C 21.691406 8.1875 21.765625 8.09375 21.773438 7.96875 C 21.957031 8.007812 22.125 8.089844 22.285156 8.195312 C 22.464844 8.316406 22.566406 8.511719 22.785156 8.570312 C 22.957031 8.617188 23.105469 8.488281 23.117188 8.316406 C 23.136719 8.035156 22.941406 7.816406 22.671875 7.65625 C 22.90625 7.292969 23.394531 7.210938 23.820312 7.335938 C 23.824219 7.472656 23.894531 7.601562 24.058594 7.640625 C 24.234375 7.679688 24.398438 7.722656 24.578125 7.738281 C 24.613281 7.738281 24.644531 7.734375 24.675781 7.730469 C 24.671875 7.933594 24.722656 8.152344 24.785156 8.359375 C 24.832031 8.53125 25.101562 8.5 25.097656 8.316406 C 25.082031 7.511719 25.671875 7.351562 26.335938 7.511719 C 26.664062 7.59375 26.972656 7.761719 27.226562 7.980469 C 27.449219 8.167969 27.589844 8.433594 27.839844 8.585938 C 27.964844 8.660156 28.140625 8.59375 28.175781 8.449219 C 28.417969 7.480469 26.84375 6.84375 26.125 6.765625 C 25.707031 6.722656 25.292969 6.835938 24.96875 7.101562 C 24.933594 7.132812 24.902344 7.167969 24.875 7.199219 C 24.859375 7.175781 24.847656 7.152344 24.828125 7.132812 C 24.132812 6.410156 22.425781 6.410156 22.164062 7.449219 C 21.933594 7.386719 21.707031 7.355469 21.542969 7.363281 C 21.425781 7.367188 21.324219 7.390625 21.226562 7.417969 C 20.847656 7.335938 20.363281 7.414062 20.101562 7.527344 C 19.828125 7.644531 19.578125 7.832031 19.414062 8.085938 C 19.375 8.144531 19.34375 8.207031 19.324219 8.265625 C 18.875 8.25 18.414062 8.328125 18.039062 8.46875 C 17.152344 8.796875 17.074219 9.59375 17.167969 10.390625 C 16.269531 10.589844 15.457031 11.957031 15.824219 12.652344 C 15.863281 12.917969 15.976562 13.160156 16.175781 13.339844 C 15.777344 13.421875 15.492188 13.660156 15.3125 13.980469 C 14.738281 14.546875 14.757812 15.710938 15.328125 16.332031 C 15.371094 16.390625 15.417969 16.449219 15.46875 16.492188 C 15.511719 16.53125 15.566406 16.542969 15.621094 16.539062 C 15.953125 16.625 16.328125 16.300781 16.109375 15.933594 C 15.910156 15.601562 15.828125 15.207031 15.882812 14.820312 C 15.902344 14.691406 15.9375 14.585938 15.988281 14.5 C 16.019531 14.484375 16.058594 14.472656 16.101562 14.46875 C 16.324219 14.453125 16.449219 14.300781 16.484375 14.132812 C 16.53125 14.117188 16.582031 14.101562 16.636719 14.085938 C 17.003906 13.996094 16.988281 13.546875 16.730469 13.378906 C 16.859375 13.234375 16.898438 12.988281 16.75 12.8125 C 16.34375 12.328125 16.785156 11.5 17.316406 11.226562 C 17.394531 11.339844 17.621094 11.324219 17.644531 11.167969 Z M 17.644531 11.167969 "/>
</g>
</g>
</g>
</svg>
