<?xml version="1.0" encoding="UTF-8"?>
<svg xmlns="http://www.w3.org/2000/svg" xmlns:xlink="http://www.w3.org/1999/xlink" width="40px" height="40px" viewBox="0 0 50 50" version="1.1">
<g id="surface1">
<path style=" stroke:none;fill-rule:nonzero;fill:rgb(0%,90.588235%,94.117647%);fill-opacity:1;" d="M 42.308594 0 L 43.710938 1.292969 C 44.308594 1.839844 49.550781 6.78125 49.964844 11.257812 C 50.304688 14.976562 48.175781 19.523438 46.324219 22.683594 C 43.789062 27.015625 40.175781 31.578125 35.878906 35.878906 L 25.546875 25.546875 L 32.929688 18.164062 L 28.535156 13.769531 Z M 42.308594 0 "/>
<path style=" stroke:none;fill-rule:nonzero;fill:rgb(0%,84.313725%,87.45098%);fill-opacity:1;" d="M 18.164062 32.929688 L 25.546875 25.546875 L 35.878906 35.878906 C 27.296875 44.457031 17.957031 50 12.082031 50 C 11.800781 50 11.523438 49.988281 11.257812 49.964844 C 6.78125 49.550781 1.839844 44.308594 1.292969 43.710938 L 0 42.308594 L 13.769531 28.535156 Z M 18.164062 32.929688 "/>
</g>
</svg>
